<svg width="364" height="49" viewBox="0 0 364 49" fill="none" xmlns="http://www.w3.org/2000/svg">
<rect y="0.924072" width="364" height="48" rx="8" fill="#0D161B"/>
<path fill-rule="evenodd" clip-rule="evenodd" d="M43.2929 13.217C43.6834 12.8264 44.3166 12.8264 44.7071 13.217L49.9571 18.467C50.3476 18.8575 50.3476 19.4907 49.9571 19.8812C49.5666 20.2717 48.9334 20.2717 48.5429 19.8812L44 15.3383L39.4571 19.8812C39.0666 20.2717 38.4334 20.2717 38.0429 19.8812C37.6524 19.4907 37.6524 18.8575 38.0429 18.467L43.2929 13.217Z" fill="white"/>
<path fill-rule="evenodd" clip-rule="evenodd" d="M44 12.9241C44.5523 12.9241 45 13.3718 45 13.9241V27.9241C45 28.4764 44.5523 28.9241 44 28.9241C43.4477 28.9241 43 28.4764 43 27.9241V13.9241C43 13.3718 43.4477 12.9241 44 12.9241Z" fill="white"/>
<path fill-rule="evenodd" clip-rule="evenodd" d="M33 26.9241C33.5523 26.9241 34 27.3718 34 27.9241V34.9241H54V27.9241C54 27.3718 54.4477 26.9241 55 26.9241C55.5523 26.9241 56 27.3718 56 27.9241V34.9241C56 35.4545 55.7893 35.9632 55.4142 36.3383C55.0391 36.7134 54.5304 36.9241 54 36.9241H34C33.4696 36.9241 32.9609 36.7134 32.5858 36.3383C32.2107 35.9632 32 35.4545 32 34.9241V27.9241C32 27.3718 32.4477 26.9241 33 26.9241Z" fill="white"/>
<path d="M68.4669 30.0221C67.8136 30.0221 67.2256 29.9101 66.7029 29.6861C66.1803 29.4527 65.7696 29.1261 65.4709 28.7061C65.1723 28.2861 65.0229 27.7961 65.0229 27.2361H66.7309C66.7683 27.6561 66.9316 28.0014 67.2209 28.2721C67.5196 28.5427 67.9349 28.6781 68.4669 28.6781C69.0176 28.6781 69.4469 28.5474 69.7549 28.2861C70.0629 28.0154 70.2169 27.6701 70.2169 27.2501C70.2169 26.9234 70.1189 26.6574 69.9229 26.4521C69.7363 26.2467 69.4983 26.0881 69.2089 25.9761C68.9289 25.8641 68.5369 25.7427 68.0329 25.6121C67.3983 25.4441 66.8803 25.2761 66.4789 25.1081C66.0869 24.9307 65.7509 24.6601 65.4709 24.2961C65.1909 23.9321 65.0509 23.4467 65.0509 22.8401C65.0509 22.2801 65.1909 21.7901 65.4709 21.3701C65.7509 20.9501 66.1429 20.6281 66.6469 20.4041C67.1509 20.1801 67.7343 20.0681 68.3969 20.0681C69.3396 20.0681 70.1096 20.3061 70.7069 20.7821C71.3136 21.2487 71.6496 21.8927 71.7149 22.7141H69.9509C69.9229 22.3594 69.7549 22.0561 69.4469 21.8041C69.1389 21.5521 68.7329 21.4261 68.2289 21.4261C67.7716 21.4261 67.3983 21.5427 67.1089 21.7761C66.8196 22.0094 66.6749 22.3454 66.6749 22.7841C66.6749 23.0827 66.7636 23.3301 66.9409 23.5261C67.1276 23.7127 67.3609 23.8621 67.6409 23.9741C67.9209 24.0861 68.3036 24.2074 68.7889 24.3381C69.4329 24.5154 69.9556 24.6927 70.3569 24.8701C70.7676 25.0474 71.1129 25.3227 71.3929 25.6961C71.6823 26.0601 71.8269 26.5501 71.8269 27.1661C71.8269 27.6607 71.6916 28.1274 71.4209 28.5661C71.1596 29.0047 70.7723 29.3594 70.2589 29.6301C69.7549 29.8914 69.1576 30.0221 68.4669 30.0221ZM80.7802 25.8781C80.7802 26.1674 80.7615 26.4287 80.7242 26.6621H74.8302C74.8768 27.2781 75.1055 27.7727 75.5162 28.1461C75.9268 28.5194 76.4308 28.7061 77.0282 28.7061C77.8868 28.7061 78.4935 28.3467 78.8482 27.6281H80.5702C80.3368 28.3374 79.9122 28.9207 79.2962 29.3781C78.6895 29.8261 77.9335 30.0501 77.0282 30.0501C76.2908 30.0501 75.6282 29.8867 75.0402 29.5601C74.4615 29.2241 74.0042 28.7574 73.6682 28.1601C73.3415 27.5534 73.1782 26.8534 73.1782 26.0601C73.1782 25.2667 73.3368 24.5714 73.6542 23.9741C73.9808 23.3674 74.4335 22.9007 75.0122 22.5741C75.6002 22.2474 76.2722 22.0841 77.0282 22.0841C77.7562 22.0841 78.4048 22.2427 78.9742 22.5601C79.5435 22.8774 79.9868 23.3254 80.3042 23.9041C80.6215 24.4734 80.7802 25.1314 80.7802 25.8781ZM79.1142 25.3741C79.1048 24.7861 78.8948 24.3147 78.4842 23.9601C78.0735 23.6054 77.5648 23.4281 76.9582 23.4281C76.4075 23.4281 75.9362 23.6054 75.5442 23.9601C75.1522 24.3054 74.9188 24.7767 74.8442 25.3741H79.1142ZM83.9468 19.5641V29.9241H82.3508V19.5641H83.9468ZM93.1122 25.8781C93.1122 26.1674 93.0935 26.4287 93.0562 26.6621H87.1622C87.2089 27.2781 87.4375 27.7727 87.8482 28.1461C88.2589 28.5194 88.7629 28.7061 89.3602 28.7061C90.2189 28.7061 90.8255 28.3467 91.1802 27.6281H92.9022C92.6689 28.3374 92.2442 28.9207 91.6282 29.3781C91.0215 29.8261 90.2655 30.0501 89.3602 30.0501C88.6229 30.0501 87.9602 29.8867 87.3722 29.5601C86.7935 29.2241 86.3362 28.7574 86.0002 28.1601C85.6735 27.5534 85.5102 26.8534 85.5102 26.0601C85.5102 25.2667 85.6689 24.5714 85.9862 23.9741C86.3129 23.3674 86.7655 22.9007 87.3442 22.5741C87.9322 22.2474 88.6042 22.0841 89.3602 22.0841C90.0882 22.0841 90.7369 22.2427 91.3062 22.5601C91.8755 22.8774 92.3189 23.3254 92.6362 23.9041C92.9535 24.4734 93.1122 25.1314 93.1122 25.8781ZM91.4462 25.3741C91.4369 24.7861 91.2269 24.3147 90.8162 23.9601C90.4055 23.6054 89.8969 23.4281 89.2902 23.4281C88.7395 23.4281 88.2682 23.6054 87.8762 23.9601C87.4842 24.3054 87.2509 24.7767 87.1762 25.3741H91.4462ZM94.1508 26.0601C94.1508 25.2667 94.3095 24.5714 94.6268 23.9741C94.9535 23.3674 95.4015 22.9007 95.9708 22.5741C96.5401 22.2474 97.1935 22.0841 97.9308 22.0841C98.8641 22.0841 99.6341 22.3081 100.241 22.7561C100.857 23.1947 101.272 23.8247 101.487 24.6461H99.7648C99.6248 24.2634 99.4008 23.9647 99.0928 23.7501C98.7848 23.5354 98.3975 23.4281 97.9308 23.4281C97.2775 23.4281 96.7548 23.6614 96.3628 24.1281C95.9801 24.5854 95.7888 25.2294 95.7888 26.0601C95.7888 26.8907 95.9801 27.5394 96.3628 28.0061C96.7548 28.4727 97.2775 28.7061 97.9308 28.7061C98.8548 28.7061 99.4661 28.3001 99.7648 27.4881H101.487C101.263 28.2721 100.843 28.8974 100.227 29.3641C99.6108 29.8214 98.8455 30.0501 97.9308 30.0501C97.1935 30.0501 96.5401 29.8867 95.9708 29.5601C95.4015 29.2241 94.9535 28.7574 94.6268 28.1601C94.3095 27.5534 94.1508 26.8534 94.1508 26.0601ZM103.889 21.1881C103.6 21.1881 103.357 21.0901 103.161 20.8941C102.965 20.6981 102.867 20.4554 102.867 20.1661C102.867 19.8767 102.965 19.6341 103.161 19.4381C103.357 19.2421 103.6 19.1441 103.889 19.1441C104.169 19.1441 104.407 19.2421 104.603 19.4381C104.799 19.6341 104.897 19.8767 104.897 20.1661C104.897 20.4554 104.799 20.6981 104.603 20.8941C104.407 21.0901 104.169 21.1881 103.889 21.1881ZM104.673 22.2101V29.9241H103.077V22.2101H104.673ZM110.115 30.0501C109.387 30.0501 108.729 29.8867 108.141 29.5601C107.553 29.2241 107.091 28.7574 106.755 28.1601C106.419 27.5534 106.251 26.8534 106.251 26.0601C106.251 25.2761 106.423 24.5807 106.769 23.9741C107.114 23.3674 107.585 22.9007 108.183 22.5741C108.78 22.2474 109.447 22.0841 110.185 22.0841C110.922 22.0841 111.589 22.2474 112.187 22.5741C112.784 22.9007 113.255 23.3674 113.601 23.9741C113.946 24.5807 114.119 25.2761 114.119 26.0601C114.119 26.8441 113.941 27.5394 113.587 28.1461C113.232 28.7527 112.747 29.2241 112.131 29.5601C111.524 29.8867 110.852 30.0501 110.115 30.0501ZM110.115 28.6641C110.525 28.6641 110.908 28.5661 111.263 28.3701C111.627 28.1741 111.921 27.8801 112.145 27.4881C112.369 27.0961 112.481 26.6201 112.481 26.0601C112.481 25.5001 112.373 25.0287 112.159 24.6461C111.944 24.2541 111.659 23.9601 111.305 23.7641C110.95 23.5681 110.567 23.4701 110.157 23.4701C109.746 23.4701 109.363 23.5681 109.009 23.7641C108.663 23.9601 108.388 24.2541 108.183 24.6461C107.977 25.0287 107.875 25.5001 107.875 26.0601C107.875 26.8907 108.085 27.5347 108.505 27.9921C108.934 28.4401 109.471 28.6641 110.115 28.6641ZM119.588 22.0841C120.195 22.0841 120.736 22.2101 121.212 22.4621C121.698 22.7141 122.076 23.0874 122.346 23.5821C122.617 24.0767 122.752 24.6741 122.752 25.3741V29.9241H121.17V25.6121C121.17 24.9214 120.998 24.3941 120.652 24.0301C120.307 23.6567 119.836 23.4701 119.238 23.4701C118.641 23.4701 118.165 23.6567 117.81 24.0301C117.465 24.3941 117.292 24.9214 117.292 25.6121V29.9241H115.696V22.2101H117.292V23.0921C117.554 22.7747 117.885 22.5274 118.286 22.3501C118.697 22.1727 119.131 22.0841 119.588 22.0841ZM131.858 25.8781C131.858 26.1674 131.84 26.4287 131.802 26.6621H125.908C125.955 27.2781 126.184 27.7727 126.594 28.1461C127.005 28.5194 127.509 28.7061 128.106 28.7061C128.965 28.7061 129.572 28.3467 129.926 27.6281H131.648C131.415 28.3374 130.99 28.9207 130.374 29.3781C129.768 29.8261 129.012 30.0501 128.106 30.0501C127.369 30.0501 126.706 29.8867 126.118 29.5601C125.54 29.2241 125.082 28.7574 124.746 28.1601C124.42 27.5534 124.256 26.8534 124.256 26.0601C124.256 25.2667 124.415 24.5714 124.732 23.9741C125.059 23.3674 125.512 22.9007 126.09 22.5741C126.678 22.2474 127.35 22.0841 128.106 22.0841C128.834 22.0841 129.483 22.2427 130.052 22.5601C130.622 22.8774 131.065 23.3254 131.382 23.9041C131.7 24.4734 131.858 25.1314 131.858 25.8781ZM130.192 25.3741C130.183 24.7861 129.973 24.3147 129.562 23.9601C129.152 23.6054 128.643 23.4281 128.036 23.4281C127.486 23.4281 127.014 23.6054 126.622 23.9601C126.23 24.3054 125.997 24.7767 125.922 25.3741H130.192ZM137.878 21.1881C137.588 21.1881 137.346 21.0901 137.15 20.8941C136.954 20.6981 136.856 20.4554 136.856 20.1661C136.856 19.8767 136.954 19.6341 137.15 19.4381C137.346 19.2421 137.588 19.1441 137.878 19.1441C138.158 19.1441 138.396 19.2421 138.592 19.4381C138.788 19.6341 138.886 19.8767 138.886 20.1661C138.886 20.4554 138.788 20.6981 138.592 20.8941C138.396 21.0901 138.158 21.1881 137.878 21.1881ZM138.662 22.2101V29.9241H137.066V22.2101H138.662ZM150.095 22.0841C150.702 22.0841 151.243 22.2101 151.719 22.4621C152.204 22.7141 152.582 23.0874 152.853 23.5821C153.133 24.0767 153.273 24.6741 153.273 25.3741V29.9241H151.691V25.6121C151.691 24.9214 151.518 24.3941 151.173 24.0301C150.828 23.6567 150.356 23.4701 149.759 23.4701C149.162 23.4701 148.686 23.6567 148.331 24.0301C147.986 24.3941 147.813 24.9214 147.813 25.6121V29.9241H146.231V25.6121C146.231 24.9214 146.058 24.3941 145.713 24.0301C145.368 23.6567 144.896 23.4701 144.299 23.4701C143.702 23.4701 143.226 23.6567 142.871 24.0301C142.526 24.3941 142.353 24.9214 142.353 25.6121V29.9241H140.757V22.2101H142.353V23.0921C142.614 22.7747 142.946 22.5274 143.347 22.3501C143.748 22.1727 144.178 22.0841 144.635 22.0841C145.251 22.0841 145.802 22.2147 146.287 22.4761C146.772 22.7374 147.146 23.1154 147.407 23.6101C147.64 23.1434 148.004 22.7747 148.499 22.5041C148.994 22.2241 149.526 22.0841 150.095 22.0841ZM154.772 26.0321C154.772 25.2574 154.931 24.5714 155.248 23.9741C155.575 23.3767 156.013 22.9147 156.564 22.5881C157.124 22.2521 157.74 22.0841 158.412 22.0841C159.019 22.0841 159.546 22.2054 159.994 22.4481C160.451 22.6814 160.815 22.9754 161.086 23.3301V22.2101H162.696V29.9241H161.086V28.7761C160.815 29.1401 160.447 29.4434 159.98 29.6861C159.513 29.9287 158.981 30.0501 158.384 30.0501C157.721 30.0501 157.115 29.8821 156.564 29.5461C156.013 29.2007 155.575 28.7247 155.248 28.1181C154.931 27.5021 154.772 26.8067 154.772 26.0321ZM161.086 26.0601C161.086 25.5281 160.974 25.0661 160.75 24.6741C160.535 24.2821 160.251 23.9834 159.896 23.7781C159.541 23.5727 159.159 23.4701 158.748 23.4701C158.337 23.4701 157.955 23.5727 157.6 23.7781C157.245 23.9741 156.956 24.2681 156.732 24.6601C156.517 25.0427 156.41 25.5001 156.41 26.0321C156.41 26.5641 156.517 27.0307 156.732 27.4321C156.956 27.8334 157.245 28.1414 157.6 28.3561C157.964 28.5614 158.347 28.6641 158.748 28.6641C159.159 28.6641 159.541 28.5614 159.896 28.3561C160.251 28.1507 160.535 27.8521 160.75 27.4601C160.974 27.0587 161.086 26.5921 161.086 26.0601ZM167.9 22.0841C168.498 22.0841 169.025 22.2054 169.482 22.4481C169.949 22.6814 170.313 22.9754 170.574 23.3301V22.2101H172.184V30.0501C172.184 30.7594 172.035 31.3894 171.736 31.9401C171.438 32.5001 171.004 32.9387 170.434 33.2561C169.874 33.5734 169.202 33.7321 168.418 33.7321C167.373 33.7321 166.505 33.4847 165.814 32.9901C165.124 32.5047 164.732 31.8421 164.638 31.0021H166.22C166.342 31.4034 166.598 31.7254 166.99 31.9681C167.392 32.2201 167.868 32.3461 168.418 32.3461C169.062 32.3461 169.58 32.1501 169.972 31.7581C170.374 31.3661 170.574 30.7967 170.574 30.0501V28.7621C170.304 29.1261 169.935 29.4341 169.468 29.6861C169.011 29.9287 168.488 30.0501 167.9 30.0501C167.228 30.0501 166.612 29.8821 166.052 29.5461C165.502 29.2007 165.063 28.7247 164.736 28.1181C164.419 27.5021 164.26 26.8067 164.26 26.0321C164.26 25.2574 164.419 24.5714 164.736 23.9741C165.063 23.3767 165.502 22.9147 166.052 22.5881C166.612 22.2521 167.228 22.0841 167.9 22.0841ZM170.574 26.0601C170.574 25.5281 170.462 25.0661 170.238 24.6741C170.024 24.2821 169.739 23.9834 169.384 23.7781C169.03 23.5727 168.647 23.4701 168.236 23.4701C167.826 23.4701 167.443 23.5727 167.088 23.7781C166.734 23.9741 166.444 24.2681 166.22 24.6601C166.006 25.0427 165.898 25.5001 165.898 26.0321C165.898 26.5641 166.006 27.0307 166.22 27.4321C166.444 27.8334 166.734 28.1414 167.088 28.3561C167.452 28.5614 167.835 28.6641 168.236 28.6641C168.647 28.6641 169.03 28.5614 169.384 28.3561C169.739 28.1507 170.024 27.8521 170.238 27.4601C170.462 27.0587 170.574 26.5921 170.574 26.0601ZM181.35 25.8781C181.35 26.1674 181.332 26.4287 181.294 26.6621H175.4C175.447 27.2781 175.676 27.7727 176.086 28.1461C176.497 28.5194 177.001 28.7061 177.598 28.7061C178.457 28.7061 179.064 28.3467 179.418 27.6281H181.14C180.907 28.3374 180.482 28.9207 179.866 29.3781C179.26 29.8261 178.504 30.0501 177.598 30.0501C176.861 30.0501 176.198 29.8867 175.61 29.5601C175.032 29.2241 174.574 28.7574 174.238 28.1601C173.912 27.5534 173.748 26.8534 173.748 26.0601C173.748 25.2667 173.907 24.5714 174.224 23.9741C174.551 23.3674 175.004 22.9007 175.582 22.5741C176.17 22.2474 176.842 22.0841 177.598 22.0841C178.326 22.0841 178.975 22.2427 179.544 22.5601C180.114 22.8774 180.557 23.3254 180.874 23.9041C181.192 24.4734 181.35 25.1314 181.35 25.8781ZM179.684 25.3741C179.675 24.7861 179.465 24.3147 179.054 23.9601C178.644 23.6054 178.135 23.4281 177.528 23.4281C176.978 23.4281 176.506 23.6054 176.114 23.9601C175.722 24.3054 175.489 24.7767 175.414 25.3741H179.684ZM192.259 22.0841C192.866 22.0841 193.407 22.2101 193.883 22.4621C194.368 22.7141 194.746 23.0874 195.017 23.5821C195.297 24.0767 195.437 24.6741 195.437 25.3741V29.9241H193.855V25.6121C193.855 24.9214 193.682 24.3941 193.337 24.0301C192.992 23.6567 192.52 23.4701 191.923 23.4701C191.326 23.4701 190.85 23.6567 190.495 24.0301C190.15 24.3941 189.977 24.9214 189.977 25.6121V29.9241H188.395V25.6121C188.395 24.9214 188.222 24.3941 187.877 24.0301C187.532 23.6567 187.06 23.4701 186.463 23.4701C185.866 23.4701 185.39 23.6567 185.035 24.0301C184.69 24.3941 184.517 24.9214 184.517 25.6121V29.9241H182.921V22.2101H184.517V23.0921C184.778 22.7747 185.11 22.5274 185.511 22.3501C185.912 22.1727 186.342 22.0841 186.799 22.0841C187.415 22.0841 187.966 22.2147 188.451 22.4761C188.936 22.7374 189.31 23.1154 189.571 23.6101C189.804 23.1434 190.168 22.7747 190.663 22.5041C191.158 22.2241 191.69 22.0841 192.259 22.0841ZM202.701 23.3441C202.971 22.9894 203.34 22.6907 203.807 22.4481C204.273 22.2054 204.801 22.0841 205.389 22.0841C206.061 22.0841 206.672 22.2521 207.223 22.5881C207.783 22.9147 208.221 23.3767 208.539 23.9741C208.856 24.5714 209.015 25.2574 209.015 26.0321C209.015 26.8067 208.856 27.5021 208.539 28.1181C208.221 28.7247 207.783 29.2007 207.223 29.5461C206.672 29.8821 206.061 30.0501 205.389 30.0501C204.801 30.0501 204.278 29.9334 203.821 29.7001C203.363 29.4574 202.99 29.1587 202.701 28.8041V33.5921H201.105V22.2101H202.701V23.3441ZM207.391 26.0321C207.391 25.5001 207.279 25.0427 207.055 24.6601C206.84 24.2681 206.551 23.9741 206.187 23.7781C205.832 23.5727 205.449 23.4701 205.039 23.4701C204.637 23.4701 204.255 23.5727 203.891 23.7781C203.536 23.9834 203.247 24.2821 203.023 24.6741C202.808 25.0661 202.701 25.5281 202.701 26.0601C202.701 26.5921 202.808 27.0587 203.023 27.4601C203.247 27.8521 203.536 28.1507 203.891 28.3561C204.255 28.5614 204.637 28.6641 205.039 28.6641C205.449 28.6641 205.832 28.5614 206.187 28.3561C206.551 28.1414 206.84 27.8334 207.055 27.4321C207.279 27.0307 207.391 26.5641 207.391 26.0321ZM210.061 26.0321C210.061 25.2574 210.22 24.5714 210.537 23.9741C210.864 23.3767 211.302 22.9147 211.853 22.5881C212.413 22.2521 213.029 22.0841 213.701 22.0841C214.308 22.0841 214.835 22.2054 215.283 22.4481C215.74 22.6814 216.104 22.9754 216.375 23.3301V22.2101H217.985V29.9241H216.375V28.7761C216.104 29.1401 215.736 29.4434 215.269 29.6861C214.802 29.9287 214.27 30.0501 213.673 30.0501C213.01 30.0501 212.404 29.8821 211.853 29.5461C211.302 29.2007 210.864 28.7247 210.537 28.1181C210.22 27.5021 210.061 26.8067 210.061 26.0321ZM216.375 26.0601C216.375 25.5281 216.263 25.0661 216.039 24.6741C215.824 24.2821 215.54 23.9834 215.185 23.7781C214.83 23.5727 214.448 23.4701 214.037 23.4701C213.626 23.4701 213.244 23.5727 212.889 23.7781C212.534 23.9741 212.245 24.2681 212.021 24.6601C211.806 25.0427 211.699 25.5001 211.699 26.0321C211.699 26.5641 211.806 27.0307 212.021 27.4321C212.245 27.8334 212.534 28.1414 212.889 28.3561C213.253 28.5614 213.636 28.6641 214.037 28.6641C214.448 28.6641 214.83 28.5614 215.185 28.3561C215.54 28.1507 215.824 27.8521 216.039 27.4601C216.263 27.0587 216.375 26.5921 216.375 26.0601ZM221.677 23.3301C221.911 22.9381 222.219 22.6347 222.601 22.4201C222.993 22.1961 223.455 22.0841 223.987 22.0841V23.7361H223.581C222.956 23.7361 222.48 23.8947 222.153 24.2121C221.836 24.5294 221.677 25.0801 221.677 25.8641V29.9241H220.081V22.2101H221.677V23.3301ZM224.922 26.0321C224.922 25.2574 225.081 24.5714 225.398 23.9741C225.725 23.3767 226.164 22.9147 226.714 22.5881C227.274 22.2521 227.89 22.0841 228.562 22.0841C229.169 22.0841 229.696 22.2054 230.144 22.4481C230.602 22.6814 230.966 22.9754 231.236 23.3301V22.2101H232.846V29.9241H231.236V28.7761C230.966 29.1401 230.597 29.4434 230.13 29.6861C229.664 29.9287 229.132 30.0501 228.534 30.0501C227.872 30.0501 227.265 29.8821 226.714 29.5461C226.164 29.2007 225.725 28.7247 225.398 28.1181C225.081 27.5021 224.922 26.8067 224.922 26.0321ZM231.236 26.0601C231.236 25.5281 231.124 25.0661 230.9 24.6741C230.686 24.2821 230.401 23.9834 230.046 23.7781C229.692 23.5727 229.309 23.4701 228.898 23.4701C228.488 23.4701 228.105 23.5727 227.75 23.7781C227.396 23.9741 227.106 24.2681 226.882 24.6601C226.668 25.0427 226.56 25.5001 226.56 26.0321C226.56 26.5641 226.668 27.0307 226.882 27.4321C227.106 27.8334 227.396 28.1414 227.75 28.3561C228.114 28.5614 228.497 28.6641 228.898 28.6641C229.309 28.6641 229.692 28.5614 230.046 28.3561C230.401 28.1507 230.686 27.8521 230.9 27.4601C231.124 27.0587 231.236 26.5921 231.236 26.0601ZM238.047 26.0321C238.047 25.2574 238.206 24.5714 238.523 23.9741C238.85 23.3767 239.289 22.9147 239.839 22.5881C240.399 22.2521 241.015 22.0841 241.687 22.0841C242.294 22.0841 242.821 22.2054 243.269 22.4481C243.727 22.6814 244.091 22.9754 244.361 23.3301V22.2101H245.971V29.9241H244.361V28.7761C244.091 29.1401 243.722 29.4434 243.255 29.6861C242.789 29.9287 242.257 30.0501 241.659 30.0501C240.997 30.0501 240.39 29.8821 239.839 29.5461C239.289 29.2007 238.85 28.7247 238.523 28.1181C238.206 27.5021 238.047 26.8067 238.047 26.0321ZM244.361 26.0601C244.361 25.5281 244.249 25.0661 244.025 24.6741C243.811 24.2821 243.526 23.9834 243.171 23.7781C242.817 23.5727 242.434 23.4701 242.023 23.4701C241.613 23.4701 241.23 23.5727 240.875 23.7781C240.521 23.9741 240.231 24.2681 240.007 24.6601C239.793 25.0427 239.685 25.5001 239.685 26.0321C239.685 26.5641 239.793 27.0307 240.007 27.4321C240.231 27.8334 240.521 28.1414 240.875 28.3561C241.239 28.5614 241.622 28.6641 242.023 28.6641C242.434 28.6641 242.817 28.5614 243.171 28.3561C243.526 28.1507 243.811 27.8521 244.025 27.4601C244.249 27.0587 244.361 26.5921 244.361 26.0601ZM249.664 19.5641V29.9241H248.068V19.5641H249.664ZM253.621 23.5121V27.7821C253.621 28.0714 253.686 28.2814 253.817 28.4121C253.957 28.5334 254.19 28.5941 254.517 28.5941H255.497V29.9241H254.237C253.518 29.9241 252.968 29.7561 252.585 29.4201C252.202 29.0841 252.011 28.5381 252.011 27.7821V23.5121H251.101V22.2101H252.011V20.2921H253.621V22.2101H255.497V23.5121H253.621ZM264.038 25.8781C264.038 26.1674 264.019 26.4287 263.982 26.6621H258.088C258.135 27.2781 258.363 27.7727 258.774 28.1461C259.185 28.5194 259.689 28.7061 260.286 28.7061C261.145 28.7061 261.751 28.3467 262.106 27.6281H263.828C263.595 28.3374 263.17 28.9207 262.554 29.3781C261.947 29.8261 261.191 30.0501 260.286 30.0501C259.549 30.0501 258.886 29.8867 258.298 29.5601C257.719 29.2241 257.262 28.7574 256.926 28.1601C256.599 27.5534 256.436 26.8534 256.436 26.0601C256.436 25.2667 256.595 24.5714 256.912 23.9741C257.239 23.3674 257.691 22.9007 258.27 22.5741C258.858 22.2474 259.53 22.0841 260.286 22.0841C261.014 22.0841 261.663 22.2427 262.232 22.5601C262.801 22.8774 263.245 23.3254 263.562 23.9041C263.879 24.4734 264.038 25.1314 264.038 25.8781ZM262.372 25.3741C262.363 24.7861 262.153 24.3147 261.742 23.9601C261.331 23.6054 260.823 23.4281 260.216 23.4281C259.665 23.4281 259.194 23.6054 258.802 23.9601C258.41 24.3054 258.177 24.7767 258.102 25.3741H262.372ZM267.205 23.3301C267.438 22.9381 267.746 22.6347 268.129 22.4201C268.521 22.1961 268.983 22.0841 269.515 22.0841V23.7361H269.109C268.483 23.7361 268.007 23.8947 267.681 24.2121C267.363 24.5294 267.205 25.0801 267.205 25.8641V29.9241H265.609V22.2101H267.205V23.3301ZM270.45 26.0321C270.45 25.2574 270.608 24.5714 270.926 23.9741C271.252 23.3767 271.691 22.9147 272.242 22.5881C272.802 22.2521 273.418 22.0841 274.09 22.0841C274.696 22.0841 275.224 22.2054 275.672 22.4481C276.129 22.6814 276.493 22.9754 276.764 23.3301V22.2101H278.374V29.9241H276.764V28.7761C276.493 29.1401 276.124 29.4434 275.658 29.6861C275.191 29.9287 274.659 30.0501 274.062 30.0501C273.399 30.0501 272.792 29.8821 272.242 29.5461C271.691 29.2007 271.252 28.7247 270.926 28.1181C270.608 27.5021 270.45 26.8067 270.45 26.0321ZM276.764 26.0601C276.764 25.5281 276.652 25.0661 276.428 24.6741C276.213 24.2821 275.928 23.9834 275.574 23.7781C275.219 23.5727 274.836 23.4701 274.426 23.4701C274.015 23.4701 273.632 23.5727 273.278 23.7781C272.923 23.9741 272.634 24.2681 272.41 24.6601C272.195 25.0427 272.088 25.5001 272.088 26.0321C272.088 26.5641 272.195 27.0307 272.41 27.4321C272.634 27.8334 272.923 28.1414 273.278 28.3561C273.642 28.5614 274.024 28.6641 274.426 28.6641C274.836 28.6641 275.219 28.5614 275.574 28.3561C275.928 28.1507 276.213 27.8521 276.428 27.4601C276.652 27.0587 276.764 26.5921 276.764 26.0601ZM276.12 20.1381L273.026 21.6641V20.4881L276.12 18.7801V20.1381ZM286.392 24.1841V25.5281H280.638V24.1841H286.392ZM290.255 19.5641V29.9241H288.659V19.5641H290.255ZM291.819 26.0321C291.819 25.2574 291.977 24.5714 292.295 23.9741C292.621 23.3767 293.06 22.9147 293.611 22.5881C294.171 22.2521 294.787 22.0841 295.459 22.0841C296.065 22.0841 296.593 22.2054 297.041 22.4481C297.498 22.6814 297.862 22.9754 298.133 23.3301V22.2101H299.743V29.9241H298.133V28.7761C297.862 29.1401 297.493 29.4434 297.027 29.6861C296.56 29.9287 296.028 30.0501 295.431 30.0501C294.768 30.0501 294.161 29.8821 293.611 29.5461C293.06 29.2007 292.621 28.7247 292.295 28.1181C291.977 27.5021 291.819 26.8067 291.819 26.0321ZM298.133 26.0601C298.133 25.5281 298.021 25.0661 297.797 24.6741C297.582 24.2821 297.297 23.9834 296.943 23.7781C296.588 23.5727 296.205 23.4701 295.795 23.4701C295.384 23.4701 295.001 23.5727 294.647 23.7781C294.292 23.9741 294.003 24.2681 293.779 24.6601C293.564 25.0427 293.457 25.5001 293.457 26.0321C293.457 26.5641 293.564 27.0307 293.779 27.4321C294.003 27.8334 294.292 28.1414 294.647 28.3561C295.011 28.5614 295.393 28.6641 295.795 28.6641C296.205 28.6641 296.588 28.5614 296.943 28.3561C297.297 28.1507 297.582 27.8521 297.797 27.4601C298.021 27.0587 298.133 26.5921 298.133 26.0601Z" fill="white"/>
</svg>
